<svg width="62" height="66" viewBox="0 0 62 66" fill="none" xmlns="http://www.w3.org/2000/svg">
<path d="M61.5 32.9998C61.5 15.2758 47.822 0.94981 31 0.949811C14.178 0.949813 0.499996 15.2758 0.499997 32.9998C0.499999 50.7238 14.178 65.0498 31 65.0498C47.822 65.0498 61.5 50.7238 61.5 32.9998Z" stroke="white"/>
<path d="M22.6541 32.999L41.731 32.999" stroke="white" stroke-width="2" stroke-linecap="round" stroke-linejoin="round"/>
<path d="M29.8078 40.5107L21.6975 33.512C21.6234 33.448 21.564 33.3691 21.5234 33.2808C21.4827 33.1925 21.4617 33.0968 21.4617 32.9999C21.4617 32.903 21.4827 32.8072 21.5234 32.7189C21.564 32.6306 21.6234 32.5518 21.6975 32.4877L29.8078 25.4877" stroke="white" stroke-width="2" stroke-linecap="round" stroke-linejoin="round"/>
</svg>
