<svg width="62" height="66" viewBox="0 0 62 66" fill="none" xmlns="http://www.w3.org/2000/svg">
<path d="M0.50001 32.9998C0.500012 15.2758 14.178 0.94981 31 0.949811C47.822 0.949813 61.5 15.2758 61.5 32.9998C61.5 50.7238 47.822 65.0498 31 65.0498C14.178 65.0498 0.500009 50.7238 0.50001 32.9998Z" stroke="white"/>
<path d="M39.3459 32.999L20.269 32.999" stroke="white" stroke-width="2" stroke-linecap="round" stroke-linejoin="round"/>
<path d="M32.1922 40.5107L40.3025 33.512C40.3766 33.448 40.436 33.3691 40.4766 33.2808C40.5173 33.1925 40.5383 33.0968 40.5383 32.9999C40.5383 32.903 40.5173 32.8072 40.4766 32.7189C40.436 32.6306 40.3766 32.5518 40.3025 32.4877L32.1922 25.4877" stroke="white" stroke-width="2" stroke-linecap="round" stroke-linejoin="round"/>
</svg>
